<?xml version="1.0" encoding="utf-8"?>
<!-- Generator: Adobe Illustrator 16.0.4, SVG Export Plug-In . SVG Version: 6.00 Build 0)  -->
<!DOCTYPE svg PUBLIC "-//W3C//DTD SVG 1.1//EN" "http://www.w3.org/Graphics/SVG/1.1/DTD/svg11.dtd">
<svg version="1.1"
	 id="Layer_1" xmlns:sodipodi="http://sodipodi.sourceforge.net/DTD/sodipodi-0.dtd" xmlns:svg="http://www.w3.org/2000/svg" xmlns:rdf="http://www.w3.org/1999/02/22-rdf-syntax-ns#" xmlns:cc="http://creativecommons.org/ns#" xmlns:dc="http://purl.org/dc/elements/1.1/" xmlns:inkscape="http://www.inkscape.org/namespaces/inkscape"
	 xmlns="http://www.w3.org/2000/svg" xmlns:xlink="http://www.w3.org/1999/xlink" x="0px" y="0px" width="494.814px"
	 height="494.05px" viewBox="364.288 69.422 494.814 494.05" enable-background="new 364.288 69.422 494.814 494.05"
	 xml:space="preserve">
<g transform="translate(0,-952.36218)">
	<path d="M452.214,1021.86c-6.528,0.717-11.427,6.304-11.286,12.87v63.36h-63.36c-0.396-0.019-0.792-0.019-1.188,0
		c-6.999,0.328-12.406,6.268-12.078,13.266c0.328,6.999,6.268,12.406,13.266,12.078h63.36v63.36
		c-0.099,6.999,5.494,12.752,12.493,12.851c6.998,0.099,12.752-5.494,12.852-12.493c0.001-0.12,0.001-0.239,0-0.358v-63.36h63.359
		c6.999,0.099,12.753-5.495,12.852-12.493s-5.494-12.752-12.493-12.851c-0.119-0.001-0.238-0.001-0.358,0h-63.359v-63.36
		c0.15-6.998-5.4-12.792-12.397-12.943C453.32,1021.775,452.766,1021.8,452.214,1021.86z M737.334,1022.058
		c-2.838,0.307-5.489,1.563-7.524,3.564l-329.472,329.473c-1.676,1.689-2.843,3.816-3.366,6.138l-31.68,139.392
		c-1.582,6.818,2.663,13.628,9.481,15.21c1.83,0.425,3.732,0.437,5.567,0.036l139.393-31.68c2.321-0.523,4.448-1.69,6.138-3.366
		l329.472-329.472c4.976-4.923,5.019-12.947,0.096-17.923c-0.031-0.032-0.063-0.063-0.096-0.095L747.63,1025.622
		C744.91,1022.944,741.128,1021.635,737.334,1022.058z M738.72,1052.55l89.893,89.892L516.96,1453.896l-89.892-89.694
		L738.72,1052.55z M416.574,1389.349l75.24,75.239l-97.417,22.177L416.574,1389.349z"/>
</g>
</svg>
