<?xml version="1.0" encoding="utf-8"?>
<!-- Generator: Adobe Illustrator 16.0.4, SVG Export Plug-In . SVG Version: 6.00 Build 0)  -->
<!DOCTYPE svg PUBLIC "-//W3C//DTD SVG 1.1//EN" "http://www.w3.org/Graphics/SVG/1.1/DTD/svg11.dtd">
<svg version="1.1" id="Layer_1" xmlns="http://www.w3.org/2000/svg" xmlns:xlink="http://www.w3.org/1999/xlink" x="0px" y="0px"
	 width="273.938px" height="270.208px" viewBox="475.009 167.619 273.938 270.208"
	 enable-background="new 475.009 167.619 273.938 270.208" xml:space="preserve">
<g>
	<path d="M661.995,437.827H498.893c-13.117,0-23.884-10.766-23.884-23.884V250.965c0-13.117,10.767-23.884,23.884-23.884h111.004
		c4.084,0,7.425,3.341,7.425,7.425c0,4.083-3.341,7.425-7.425,7.425H498.893c-4.95,0-9.034,4.084-9.034,9.034v162.979
		c0,4.95,4.084,9.034,9.034,9.034h162.979c4.95,0,9.034-4.084,9.034-9.034V306.652c0-4.083,3.341-7.425,7.425-7.425
		s7.425,3.341,7.425,7.425v107.291C685.879,427.185,675.112,437.827,661.995,437.827z"/>
	<path d="M745.773,195.896l-24.997-24.998c-4.455-4.455-11.633-4.332-16.088,0.124L599.377,276.334
		c-0.865,0.866-1.608,1.98-2.227,3.094l-24.379,49.376c-2.228,4.455-1.361,9.528,2.104,12.994c2.104,2.104,4.95,3.217,7.796,3.217
		c1.732,0,3.466-0.371,5.074-1.237l49.376-24.379l0,0c1.114-0.495,2.104-1.237,2.97-2.228l105.436-105.435
		C749.981,207.529,750.105,200.351,745.773,195.896z M590.839,325.834l18.81-38.115l19.306,19.305L590.839,325.834z M639.72,296.876
		l-19.924-19.8l65.588-65.587l19.8,19.924L639.72,296.876z M715.702,220.894l-19.8-19.8l16.954-16.954l19.8,19.8L715.702,220.894z"
		/>
</g>
</svg>
