<?xml version="1.0" encoding="utf-8"?>
<!-- Generator: Adobe Illustrator 16.0.4, SVG Export Plug-In . SVG Version: 6.00 Build 0)  -->
<!DOCTYPE svg PUBLIC "-//W3C//DTD SVG 1.1//EN" "http://www.w3.org/Graphics/SVG/1.1/DTD/svg11.dtd">
<svg version="1.1"
	 id="Layer_1" xmlns:sodipodi="http://sodipodi.sourceforge.net/DTD/sodipodi-0.dtd" xmlns:svg="http://www.w3.org/2000/svg" xmlns:rdf="http://www.w3.org/1999/02/22-rdf-syntax-ns#" xmlns:cc="http://creativecommons.org/ns#" xmlns:dc="http://purl.org/dc/elements/1.1/" xmlns:inkscape="http://www.inkscape.org/namespaces/inkscape"
	 xmlns="http://www.w3.org/2000/svg" xmlns:xlink="http://www.w3.org/1999/xlink" x="0px" y="0px" width="482.207px"
	 height="481.498px" viewBox="370.61 75.834 482.207 481.498" enable-background="new 370.61 75.834 482.207 481.498"
	 xml:space="preserve">
<g transform="translate(0,-952.36218)">
	<path d="M453.6,1028.196c-0.268,0.049-0.532,0.115-0.792,0.198c-3.187,0.401-5.568,3.124-5.544,6.336v69.696h-69.696
		c-0.395-0.037-0.792-0.037-1.188,0c-3.499,0.328-6.07,3.431-5.742,6.93c0.328,3.499,3.431,6.07,6.93,5.742h69.696v69.696
		c0.556,3.499,3.842,5.886,7.342,5.331c2.743-0.435,4.896-2.587,5.33-5.331v-69.696h69.696c3.499,0.05,6.376-2.747,6.426-6.246
		c0.05-3.5-2.747-6.376-6.246-6.426c-0.06-0.001-0.12-0.001-0.18,0h-69.696v-69.696c0.109-3.498-2.638-6.422-6.136-6.531
		C453.733,1028.197,453.667,1028.196,453.6,1028.196z M737.334,1028.394c-1.207,0.271-2.309,0.891-3.168,1.782l-329.472,329.472
		c-0.786,0.829-1.334,1.855-1.584,2.97l-31.68,139.393c-0.849,3.395,1.215,6.835,4.611,7.684c0.955,0.239,1.952,0.252,2.913,0.038
		l139.392-31.68c1.208-0.272,2.309-0.892,3.168-1.782l329.473-329.472c2.44-2.469,2.44-6.441,0-8.91l-107.712-107.712
		C741.74,1028.588,739.489,1027.912,737.334,1028.394z M738.72,1043.64l98.604,98.802L516.96,1462.807l-98.604-98.604
		L738.72,1043.64z M412.812,1376.677l91.476,91.476l-118.404,26.928L412.812,1376.677z"/>
</g>
</svg>
