<svg xmlns="http://www.w3.org/2000/svg" xmlns:xlink="http://www.w3.org/1999/xlink" version="1.1" x="0px" y="0px" viewBox="0 0 100 125" enable-background="new 0 0 100 100" xml:space="preserve"><path fill="#000000" d="M36.156,68.288l1.915-13.216l11.172,9.713L36.156,68.288z M94.986,23.645  c0.042-0.773-0.445-1.77-0.753-2.265c-0.316-0.508-1.154-1.745-2.324-1.723c-1.473,0.027-37.89,42.893-37.89,42.893l-5.068-4.406  c0.013-0.014,0.029-0.023,0.041-0.038l22.755-25.371c0.911-1.016,0.825-2.593-0.19-3.504c-1.016-0.911-2.593-0.825-3.504,0.19  L45.299,54.792c-0.03,0.034-0.05,0.072-0.078,0.107l-5.488-4.772c0,0,38.663-40.946,38.851-42.278  c0.096-0.678-0.311-1.695-1.534-2.267c-0.852-0.398-2.251-0.371-2.434-0.365h-60.11c-4.985,0-9.038,4.055-9.038,9.038v70.156  c0,4.985,4.053,9.038,9.038,9.038h71.46c4.985,0,9.038-4.053,9.038-9.038V23.646C94.996,23.646,94.991,23.645,94.986,23.645z   M90.483,84.412c0,2.491-2.028,4.519-4.519,4.519h-71.46c-2.491,0-4.519-2.028-4.519-4.519V14.255c0-2.492,2.028-4.519,4.519-4.519  h54.979L34.475,48.752c-0.314,0.35-0.517,0.783-0.584,1.246l-3.075,21.218c-0.115,0.798,0.185,1.599,0.799,2.133  c0.487,0.424,1.123,0.634,1.76,0.594c0.163-0.009,0.327-0.036,0.488-0.078l21.008-5.624c0.459-0.123,0.87-0.375,1.186-0.726  l34.426-38.367V84.412z"/><text x="0" y="115" fill="#000000" font-size="5px" font-weight="bold" font-family="'Helvetica Neue', Helvetica, Arial-Unicode, Arial, Sans-serif">Created by Ilya Tsarenko</text><text x="0" y="120" fill="#000000" font-size="5px" font-weight="bold" font-family="'Helvetica Neue', Helvetica, Arial-Unicode, Arial, Sans-serif">from the Noun Project</text></svg>