<?xml version="1.0" encoding="utf-8"?>
<!-- Generator: Adobe Illustrator 16.0.4, SVG Export Plug-In . SVG Version: 6.00 Build 0)  -->
<!DOCTYPE svg PUBLIC "-//W3C//DTD SVG 1.1//EN" "http://www.w3.org/Graphics/SVG/1.1/DTD/svg11.dtd">
<svg version="1.1" id="Layer_1" xmlns="http://www.w3.org/2000/svg" xmlns:xlink="http://www.w3.org/1999/xlink" x="0px" y="0px"
	 width="292.723px" height="292.723px" viewBox="404.18 119.75 292.723 292.723"
	 enable-background="new 404.18 119.75 292.723 292.723" xml:space="preserve">
<path fill="none" stroke="#000000" stroke-miterlimit="10" d="M462.471,123.552"/>
<g>
	<path d="M525.83,339.609l41.818-20.275l117.216-160.3c6.97-8.871,6.97-20.275,0-25.344l-10.771-6.97
		c-2.534-1.9-5.702-2.534-9.504-2.534c-5.702,0.634-10.771,4.435-14.573,9.504L533.434,292.723L525.83,339.609z M539.136,295.258
		l115.315-157.767c3.168-3.802,6.97-6.97,10.771-6.97c1.267,0,3.168,0,5.068,1.268l10.138,7.603
		c3.802,3.168,3.168,10.138-1.267,16.474L563.213,314.899l-29.146,13.939L539.136,295.258z"/>
	<path d="M690.566,209.088v172.339c0,13.306-10.771,24.077-24.077,24.077H434.592c-13.306,0-24.076-10.771-24.076-24.077V150.163
		c0-13.306,10.771-24.077,24.076-24.077h174.24v-6.336h-174.24c-16.474,0-30.412,13.306-30.412,30.413v231.897
		c0,16.474,13.305,30.413,30.412,30.413h231.897c16.474,0,30.413-13.306,30.413-30.413V209.088H690.566z"/>
</g>
</svg>
